<?xml version="1.0" encoding="utf-8"?>
<!-- Generator: Adobe Illustrator 19.1.0, SVG Export Plug-In . SVG Version: 6.00 Build 0)  -->
<svg version="1.1" baseProfile="tiny" id="Ebene_1" xmlns="http://www.w3.org/2000/svg" xmlns:xlink="http://www.w3.org/1999/xlink"
	 x="0px" y="0px" viewBox="0 0 141.7 141.7" xml:space="preserve">
<path fill="#010202" d="M60.2,35.4c-9.1-9.1-23.7-9.5-33.3-1.1l1.1,1.1c4.3-3.7,9.6-5.6,15-5.6c5.9,0,11.7,2.2,16.2,6.7
	c1.6,1.6,2.9,3.4,4,5.4l1.1-1.2C63.1,38.8,61.8,37,60.2,35.4"/>
<path fill="#010202" d="M26.7,68.9c-8.5-8.5-8.9-22.1-1.2-31.1l-1.1-1.1c-8.3,9.6-7.9,24.2,1.2,33.3c2.2,2.2,4.8,4,7.6,5.1l1.1-1.2
	C31.6,72.8,29,71.2,26.7,68.9"/>
<path fill="#010202" d="M68.3,53.5c0-5.6,2.7-11.7,7.3-15c0.4-0.3,0.9-0.6,1.4-0.9c2.6-1.5,5.6-2.3,8.6-2.3c8.9,0,16.5,7,17.2,15.9
	l0.1,0.8l0.8,0c9.3,0,17.2,8.2,17.2,17.9c0,9.7-7.9,17.9-17.2,17.9c-3.9,0-7.3-1.2-10.1-3.6l-0.3-0.1h-0.9l-0.3,0.2
	c-1.7,1.3-5.3,4-10.9,4c-4.1,0-7-1.3-10.5-4.9l-0.6-0.6l-0.6,0.6c-3.1,2.9-7,4.4-11.5,4.4c-9.5,0-17.2-7.7-17.2-17.1
	c0-2.6,0.6-5.2,1.8-7.6c0.2-0.4,0.4-0.9,0.7-1.3c3.2-5.2,8.5-8.4,14.6-8.4c1.5,0,3.2,0.2,4.2,0.6v-1.8c-1-0.3-2.7-0.5-4.2-0.5
	c-6.7,0-12.7,3.4-16.2,9.2c-0.3,0.5-0.5,0.9-0.7,1.4c-1.3,2.7-2,5.5-2,8.4c0,10.4,8.5,18.9,19,18.9c4.6,0,8.8-1.5,12.1-4.4
	c3.6,3.4,6.8,4.8,11.2,4.8c5.9,0,9.7-2.7,11.6-4.2c3,2.5,6.7,3.8,10.8,3.8c10.3,0,19-9,19-19.7c0-10.4-8.3-19.2-18.3-19.7
	c-1.1-9.4-9.3-16.7-18.9-16.7c-3.3,0-6.6,0.9-9.5,2.5c-0.5,0.3-1,0.6-1.5,1c-5,3.6-8,10.3-8,16.4c0,0,0,0,0,0"/>
<path fill="#010202" d="M54,107.8c-0.1,0-0.3,0-0.4-0.1c-0.5-0.2-0.7-0.8-0.5-1.3l4.7-9.6c0.2-0.5,0.8-0.7,1.3-0.5
	c0.5,0.2,0.7,0.8,0.5,1.3l-4.7,9.6C54.7,107.6,54.4,107.8,54,107.8"/>
<path fill="#010202" d="M70.1,107.8c-0.1,0-0.3,0-0.4-0.1c-0.5-0.2-0.7-0.8-0.5-1.3l4.7-9.6c0.2-0.5,0.8-0.7,1.3-0.5
	c0.5,0.2,0.7,0.8,0.5,1.3l-4.7,9.6C70.8,107.6,70.5,107.8,70.1,107.8"/>
<path fill="#010202" d="M86.1,107.8c-0.1,0-0.3,0-0.4-0.1c-0.5-0.2-0.7-0.8-0.5-1.3l4.7-9.6c0.2-0.5,0.8-0.7,1.3-0.5
	c0.5,0.2,0.7,0.8,0.5,1.3l-4.7,9.6C86.8,107.6,86.5,107.8,86.1,107.8"/>
<path fill="#010202" d="M58.7,114.6c-0.1,0-0.3,0-0.4-0.1c-0.5-0.2-0.7-0.8-0.5-1.3l5.7-11.6c0.2-0.5,0.8-0.7,1.3-0.5
	c0.5,0.2,0.7,0.8,0.5,1.3L59.6,114C59.5,114.4,59.1,114.6,58.7,114.6"/>
<path fill="#010202" d="M90.9,114.6c-0.1,0-0.3,0-0.4-0.1c-0.5-0.2-0.7-0.8-0.5-1.3l5.7-11.6c0.2-0.5,0.8-0.7,1.3-0.5
	c0.5,0.2,0.7,0.8,0.5,1.3L91.8,114C91.6,114.4,91.3,114.6,90.9,114.6"/>
<path fill="#010202" d="M74.8,114.6c-0.1,0-0.3,0-0.4-0.1c-0.5-0.2-0.7-0.8-0.5-1.3l5.7-11.6c0.2-0.5,0.8-0.7,1.3-0.5
	c0.5,0.2,0.7,0.8,0.5,1.3L75.7,114C75.5,114.4,75.2,114.6,74.8,114.6"/>
<path fill="#010202" d="M102.1,107.8c-0.1,0-0.3,0-0.4-0.1c-0.5-0.2-0.7-0.8-0.5-1.3l4.7-9.6c0.2-0.5,0.8-0.7,1.3-0.5
	c0.5,0.2,0.7,0.8,0.5,1.3l-4.7,9.6C102.8,107.6,102.5,107.8,102.1,107.8"/>
</svg>
