<?xml version="1.0" encoding="utf-8"?>
<!-- Generator: Adobe Illustrator 19.1.0, SVG Export Plug-In . SVG Version: 6.00 Build 0)  -->
<svg version="1.1" baseProfile="tiny" id="Ebene_1" xmlns="http://www.w3.org/2000/svg" xmlns:xlink="http://www.w3.org/1999/xlink"
	 x="0px" y="0px" viewBox="0 0 141.7 141.7" xml:space="preserve">
<path fill="#010202" d="M58.7,51.7c0-5.6,2.7-11.7,7.3-15c0.4-0.3,0.9-0.6,1.4-0.9c2.6-1.5,5.6-2.3,8.6-2.3c8.9,0,16.5,7,17.2,15.9
	l0.1,0.8l0.8,0c9.3,0,17.2,8.2,17.2,17.9c0,9.7-7.9,17.9-17.2,17.9c-3.9,0-7.3-1.2-10.1-3.6l-0.3-0.1h-0.9l-0.3,0.2
	c-1.7,1.3-5.3,4-10.9,4c-4.1,0-7-1.3-10.5-4.9L60.4,81l-0.6,0.6c-3.1,2.9-7,4.4-11.5,4.4c-9.5,0-17.2-7.7-17.2-17.1
	c0-2.6,0.6-5.2,1.8-7.6c0.2-0.4,0.4-0.9,0.7-1.3c3.2-5.2,8.5-8.4,14.6-8.4c1.5,0,3.2,0.2,4.2,0.6v-1.8c-1-0.3-2.7-0.5-4.2-0.5
	c-6.7,0-12.7,3.4-16.2,9.2c-0.3,0.5-0.5,0.9-0.7,1.4c-1.3,2.7-2,5.5-2,8.4c0,10.4,8.5,18.9,19,18.9c4.6,0,8.8-1.5,12.1-4.4
	c3.6,3.4,6.8,4.8,11.2,4.8c5.9,0,9.7-2.7,11.6-4.2c3,2.5,6.7,3.8,10.8,3.8c10.3,0,19-9,19-19.7c0-10.4-8.3-19.2-18.3-19.7
	c-1.1-9.4-9.3-16.7-18.9-16.7c-3.3,0-6.6,0.9-9.5,2.5c-0.5,0.3-1,0.6-1.5,1c-5,3.6-8,10.3-8,16.4c0,0,0,0,0,0"/>
<circle fill="#010202" cx="55.2" cy="97.4" r="1.5"/>
<circle fill="#010202" cx="71.2" cy="97.4" r="1.5"/>
<circle fill="#010202" cx="87.2" cy="97.4" r="1.5"/>
<circle fill="#010202" cx="62.2" cy="103.4" r="1.5"/>
<circle fill="#010202" cx="77.2" cy="103.4" r="1.5"/>
<circle fill="#010202" cx="52.2" cy="108.4" r="1.5"/>
<circle fill="#010202" cx="68.2" cy="108.4" r="1.5"/>
<circle fill="#010202" cx="47.2" cy="103.4" r="1.5"/>
</svg>
