<?xml version="1.0" encoding="utf-8"?>
<!-- Generator: Adobe Illustrator 19.1.0, SVG Export Plug-In . SVG Version: 6.00 Build 0)  -->
<svg version="1.1" baseProfile="tiny" id="Ebene_1" xmlns="http://www.w3.org/2000/svg" xmlns:xlink="http://www.w3.org/1999/xlink"
	 x="0px" y="0px" viewBox="0 0 141.7 141.7" xml:space="preserve">
<path fill="#010202" d="M42,103.8c-0.1,0-0.3,0-0.4-0.1c-0.5-0.2-0.7-0.8-0.5-1.3l4.7-9.6c0.2-0.5,0.8-0.7,1.3-0.5
	c0.5,0.2,0.7,0.8,0.5,1.3l-4.7,9.6C42.7,103.6,42.4,103.8,42,103.8"/>
<path fill="#010202" d="M46.7,110.6c-0.1,0-0.3,0-0.4-0.1c-0.5-0.2-0.7-0.8-0.5-1.3l5.7-11.6c0.2-0.5,0.8-0.7,1.3-0.5
	c0.5,0.2,0.7,0.8,0.5,1.3L47.6,110C47.5,110.4,47.1,110.6,46.7,110.6"/>
<path fill="#010202" d="M78.9,110.6c-0.1,0-0.3,0-0.4-0.1c-0.5-0.2-0.7-0.8-0.5-1.3l5.7-11.6c0.2-0.5,0.8-0.7,1.3-0.5
	c0.5,0.2,0.7,0.8,0.5,1.3L79.8,110C79.6,110.4,79.3,110.6,78.9,110.6"/>
<path fill="#010202" d="M90.1,103.8c-0.1,0-0.3,0-0.4-0.1c-0.5-0.2-0.7-0.8-0.5-1.3l4.7-9.6c0.2-0.5,0.8-0.7,1.3-0.5
	c0.5,0.2,0.7,0.8,0.5,1.3l-4.7,9.6C90.8,103.6,90.5,103.8,90.1,103.8"/>
<path fill="#010202" d="M92.4,46.3c-1.1-9.4-9.3-16.7-18.9-16.7c-3.3,0-6.6,0.9-9.5,2.5c-0.5,0.3-1,0.6-1.5,1c-5,3.6-8,10.3-8,16.4
	c0,0,0,0,0,0l1.8,0c0-5.6,2.7-11.7,7.3-15c0.4-0.3,0.9-0.6,1.4-0.9c2.6-1.5,5.6-2.3,8.6-2.3c8.9,0,16.5,7,17.2,15.9l0.1,0.8l0.8,0
	c9.3,0,17.2,8.2,17.2,17.9c0,9.7-7.9,17.9-17.2,17.9c-3.9,0-6.8-1.1-9.4-2.9L82,81.1L81,82c3,2.4,6.6,3.6,10.6,3.6
	c10.3,0,19-9,19-19.7C110.7,55.6,102.4,46.7,92.4,46.3"/>
<path fill="#010202" d="M57.4,79.4c-3.1,2.9-7,4.4-11.5,4.4c-9.5,0-17.2-7.7-17.2-17.1c0-2.6,0.6-5.2,1.8-7.6
	c0.2-0.4,0.4-0.9,0.7-1.3c3.2-5.2,8.5-8.4,14.6-8.4c1.5,0,3.2,0.2,4.2,0.6v-1.8c-1-0.3-2.7-0.5-4.2-0.5c-6.7,0-12.7,3.4-16.2,9.2
	c-0.3,0.5-0.5,0.9-0.7,1.4c-1.3,2.7-2,5.5-2,8.4c0,10.4,8.5,18.9,19,18.9c4.6,0,8.7-1.5,12-4.3L57.4,79.4z"/>
<path fill="none" stroke="#000000" stroke-width="2" stroke-miterlimit="10" d="M72.2,68.6L59.3,89.3c-0.1,0.2,0,0.4,0.2,0.4
	l9.6-0.4c0.2,0,0.3,0.2,0.3,0.4l-6.1,17c-0.1,0.3,0.3,0.5,0.5,0.3l14-22.2c0.1-0.2,0-0.4-0.2-0.4h-9.1c-0.2,0-0.3-0.2-0.3-0.3
	l4.5-15.1C72.8,68.5,72.4,68.4,72.2,68.6"/>
</svg>
