<?xml version="1.0" encoding="utf-8"?>
<!-- Generator: Adobe Illustrator 19.1.0, SVG Export Plug-In . SVG Version: 6.00 Build 0)  -->
<svg version="1.1" baseProfile="tiny" id="Ebene_1" xmlns="http://www.w3.org/2000/svg" xmlns:xlink="http://www.w3.org/1999/xlink"
	 x="0px" y="0px" viewBox="0 0 141.7 141.7" xml:space="preserve">
<path fill="#010202" d="M78.3,79.1c0-5.8,2.8-12.2,7.6-15.6c0.4-0.3,0.9-0.6,1.4-0.9c2.7-1.6,5.8-2.4,9-2.4
	c9.3,0,17.2,7.3,17.9,16.6l0.1,0.9l0.9,0c9.7,0,18,8.5,18,18.7c0,10.1-8.2,18.7-18,18.7c-4.1,0-7.6-1.1-10.5-3.7l-0.3-0.1h-0.9
	l-0.3,0.1c-1.8,1.4-5.5,4.2-11.4,4.2c-4.3,0-7.3-1.4-11-5.1l-0.6-0.7l-0.7,0.6c-3.2,3-7.3,4.6-11.9,4.6c-9.9,0-18-8-18-17.9
	c0-2.8,0.6-5.4,1.9-7.9c0.2-0.4,0.5-0.9,0.7-1.3c3.3-5.5,9-8.7,15.3-8.7c1.5,0,3.5,0.2,4.5,0.6v-1.9c-1-0.3-2.9-0.5-4.5-0.5
	c-7,0-13.3,3.6-16.9,9.6c-0.3,0.5-0.5,1-0.8,1.5c-1.4,2.8-2.1,5.7-2.1,8.8c0,10.9,8.9,19.7,19.8,19.7c4.8,0,9.1-1.6,12.6-4.5
	c3.8,3.6,7.1,5,11.6,5c6.1,0,10.1-2.8,12.1-4.4c3.1,2.6,7,3.9,11.3,3.9c10.7,0,19.8-9.4,19.8-20.5c0-10.8-8.6-20.1-19-20.5
	c-1.2-9.8-9.7-17.4-19.7-17.4c-3.5,0-6.9,0.9-9.9,2.7c-0.5,0.3-1.1,0.6-1.6,1c-5.2,3.7-8.4,10.7-8.4,17.1c0,0,0,0,0,0"/>
<path fill="#010202" d="M78.7,47.2l5-5c0.3-0.3,0.3-0.9,0-1.2c-0.3-0.3-0.9-0.3-1.2,0l-5,5c-0.3,0.3-0.3,0.9,0,1.2
	C77.8,47.5,78.4,47.5,78.7,47.2"/>
<path fill="#010202" d="M19.8,70.3L8.3,70.5c-0.5,0-0.9,0.4-0.9,0.9c0,0.5,0.4,0.9,0.9,0.9L19.8,72c0.5,0,0.9-0.4,0.9-0.9
	C20.7,70.6,20.3,70.2,19.8,70.3"/>
<path fill="#010202" d="M54,37.5c0.5,0,1-0.4,1-0.9V25.1c0-0.5-0.5-0.9-1-0.9c-0.5,0-1,0.4-1,0.9v11.5C53,37.1,53.5,37.5,54,37.5"/>
<path fill="#010202" d="M30.4,94.2c-0.3-0.3-0.9-0.3-1.2,0l-5,5c-0.3,0.3-0.3,0.9,0,1.2c0.3,0.3,0.9,0.3,1.2,0l5-5
	C30.8,95.1,30.8,94.6,30.4,94.2"/>
<path fill="#010202" d="M29.2,47.2c0.3,0.3,0.9,0.3,1.2,0c0.3-0.3,0.3-0.9,0-1.2l-5-5c-0.3-0.3-0.9-0.3-1.2,0
	c-0.3,0.3-0.3,0.9,0,1.2L29.2,47.2z"/>
<path fill="#010202" d="M71.2,53.4c-9.1-9.1-23.7-9.5-33.3-1.1l1.1,1.1c4.3-3.7,9.6-5.6,15-5.6c5.9,0,11.7,2.2,16.2,6.7
	c1.6,1.6,2.9,3.4,4,5.4l1.1-1.2C74.2,56.8,72.8,55,71.2,53.4"/>
<path fill="#010202" d="M37.7,86.9c-8.5-8.5-8.9-22.1-1.2-31.1l-1.1-1.1c-8.3,9.6-7.9,24.2,1.2,33.3c2.2,2.2,4.8,4,7.6,5.1l1.1-1.2
	C42.6,90.8,40,89.2,37.7,86.9"/>
</svg>
