<?xml version="1.0" encoding="utf-8"?>
<!-- Generator: Adobe Illustrator 21.1.0, SVG Export Plug-In . SVG Version: 6.00 Build 0)  -->
<svg version="1.1" id="Ebene_1" xmlns="http://www.w3.org/2000/svg" xmlns:xlink="http://www.w3.org/1999/xlink" x="0px" y="0px"
	 viewBox="0 0 900 550" style="enable-background:new 0 0 900 550;" xml:space="preserve">
<style type="text/css">
	.st0{display:none;fill:#FFFFFF;}
	.st1{display:none;}
	.st2{display:inline;fill:none;}
	.st3{display:inline;}
	.st4{fill:none;stroke:#FFFFFF;stroke-width:29;stroke-linejoin:round;stroke-miterlimit:10;}
	.st5{font-family:'Anydore';}
	.st6{font-size:130px;}
	.st7{font-size:259px;}
	.st8{fill:#FFFFFF;}
</style>
<path class="st0" d="M148.1,237.2c-27.4,10.5-42.7,40.1-35,68.4c1.7,6.4,1.2,12.5-3.2,17.4c-20.3,22.6,35,49,35,49l106,14l284-49
	l292-67l31-56v-59l3-22c0,0-84,25-55-56c8.8-24.5-36-18-36-18l-204,60l-222,66l-59,3l-35,10L148.1,237.2z"/>
<g class="st1">
	
		<rect x="20.6" y="96.5" transform="matrix(0.9781 -0.2079 0.2079 0.9781 -61.5628 104.8076)" class="st2" width="894.4" height="497.5"/>
	<text transform="matrix(0.9781 -0.2079 0.2079 0.9781 72.432 264.187)" class="st3"><tspan x="0" y="0" class="st4 st5 st6">Was soll ich heute</tspan><tspan x="-64.3" y="220" class="st4 st5 st7">Anziehen?</tspan></text>
</g>
<g>
	<g>
		<path class="st8" d="M92.9,167.6c1.6-0.3,3-0.3,4.3,0.1c1.2,0.4,2.3,0.9,3.1,1.6c0.8,0.6,1.4,1.2,1.8,1.6
			c-0.4,3.9-0.4,10.8,0,20.8c0.4,9.9,1.1,20.1,2,30.5c0.9,10.4,1.8,17.7,2.7,21.9c0.1,0.7,0.4,1.3,0.7,1.9c0.3,0.6,0.8,0.8,1.5,0.7
			c1.2-0.3,2.3-1.9,3-4.9c0.8-3,1.4-6.9,1.9-11.5c0.5-4.6,0.8-9.6,1-15c0.2-5.4,0.4-10.6,0.6-15.8c0.2-9.5,0.5-16.5,1.1-20.9
			c0.9-5.3,2.8-8.3,5.9-9l0.3-0.1c0,0,0.1,0,0.1-0.1c0.2-0.1,0.4-0.1,0.6-0.2c1-0.2,2-0.2,3.1,0.1c1.3,0.2,3,1.4,4.9,3.6
			c-0.2,1.8-0.3,4.5-0.3,8.2c0.1,9.6,0.7,20.1,1.9,31.7c1.2,11.5,2.3,19.9,3.4,25.1c0.1,0.7,0.4,1.3,0.7,1.9
			c0.3,0.6,0.8,0.8,1.5,0.7c1.9-0.4,4.1-5,6.5-13.6c2.4-8.7,4.1-18.4,5.1-29.1c-3.2-1-5.8-2.8-7.7-5.4c-1.9-2.6-3.2-5.7-4-9.1
			c-0.9-4.1-1.1-8.2-0.6-12.4c0.5-4.2,1.4-7.9,2.9-10.9c1.4-3.1,3.2-4.8,5.2-5.2c2.4-0.5,4.5-0.2,6,1c1.6,1.2,2.9,2.9,3.9,5
			c0.9,2,1.6,4.1,2.1,6.5l0.1,0.6c1.3,6.9,1.3,16.4,0,28.3c1.6-0.1,3.2-0.4,4.8-0.7c3.8-0.9,7.8-2.3,11.9-4.3
			c-3.3,3.3-7.7,5.5-13.1,6.6c-1.2,0.3-2.6,0.5-4,0.6c-0.7,6.1-1.8,12.1-3.2,18.1c-1.4,6.1-3.2,11.8-5.2,17c-2,5.2-4.4,9.6-7.1,13.1
			c-2.7,3.5-5.6,5.6-8.9,6.3c-2.2,0.5-4.1,0.2-5.6-0.7c-1.5-0.9-2.8-2.3-3.8-4.2c-1-1.8-1.8-3.9-2.4-6.2c-0.3-1-0.5-2-0.7-2.9
			c-0.3-1.3-0.5-2.6-0.7-3.8c-0.3-2.2-0.5-4.2-0.6-6c-0.3,3.3-0.7,6.7-1.3,9.9c-0.6,3.3-1.4,6.3-2.5,9.1c-1.1,2.8-2.6,5.2-4.6,7.2
			s-4.4,3.3-7.5,3.9c-2.6,0.5-4.7,0.4-6.3-0.5c-1.6-0.9-2.9-2.2-3.8-3.8c-0.9-1.6-1.5-3.1-1.8-4.6c-1-4.6-2-11.7-3.1-21.6
			c-1.1-9.8-1.9-19.6-2.5-29.4c-0.6-9.8-0.6-17.4-0.2-22.8c-3.9,0.8-7.4,3.2-10.4,7.2c-3,3.9-5.2,8.5-6.6,13.7
			c-1.4,5.2-1.6,10-0.6,14.5c0.6,2.7,1.6,5.2,3.2,7.3c1.5,2.2,3.6,3.8,6.3,4.9c-0.1,0.1-0.2,0.1-0.3,0.2c-0.8,0.6-1.6,1.2-2.4,1.7
			c-0.8,0.5-1.9,0.9-3.4,1.2c-2.3,0.5-4.3,0.3-6-0.5c-1.7-0.9-3.1-2.1-4.1-3.6c-1.1-1.6-1.8-3.2-2.1-4.8c-1.1-5-0.8-10.3,0.7-15.8
			c1.5-5.5,3.9-10.6,7.2-15.4c3.3-4.8,7.1-9,11.5-12.4C83.8,170.7,88.3,168.5,92.9,167.6z M150.5,194.6c0.7-8.3,0.3-15.5-0.9-21.5
			c-0.4-1.7-0.8-3.1-1.3-4.3c-0.5-1.2-1.2-1.7-2.1-1.5c-1.4,0.3-2.6,2.2-3.5,5.7c-0.9,3.5-0.9,7.1-0.1,10.9c0.5,2.3,1.4,4.4,2.6,6.3
			C146.4,192.1,148.2,193.5,150.5,194.6z"/>
		<path class="st8" d="M210.5,222c0.1,0.7,0.4,1.3,0.7,1.9c0.3,0.6,0.8,0.8,1.4,0.7c0.7-0.2,1.5-0.9,2.3-2.3
			c0.8-1.4,1.6-3.1,2.4-5.2c1.4-3.8,2.6-7.7,3.6-11.8c1-4.1,1.7-7.3,2.1-9.4c0.2,1,0,3.8-0.5,8.3c-0.6,4.5-1.6,9.3-3,14.5
			c-0.8,3-1.8,5.8-3,8.4c-1.2,2.6-2.5,4.8-4,6.6c-1.5,1.8-3.1,2.9-5,3.3c-2.6,0.5-4.7,0.4-6.3-0.6c-1.6-0.9-2.9-2.2-3.7-3.8
			c-0.9-1.6-1.4-3.1-1.7-4.6c-0.6-2.6-0.9-5.7-1.1-9.3c-0.5,3.1-1.1,6.2-2.1,9.3c-1.1,3.9-2.6,7.2-4.5,10c-1.6,2.4-3.5,3.9-5.8,4.3
			c-1.6,0.3-3,0.4-4.3,0.1c-1.2-0.3-2.3-0.8-3.2-1.5c-1.3-1.1-2.3-2.3-3-3.7c-0.7-1.4-1.2-2.7-1.4-3.8c-0.3-1.5-0.6-3.7-0.9-6.6
			c-0.3-2.9-0.4-6.2-0.4-9.8c0-4.7,0.3-9.4,1.1-14c0.6-4,1.7-7.4,3.1-10.3c0.8-1.6,1.7-2.9,2.8-4c1.1-1.1,2.4-1.7,3.8-2
			c2.7-0.6,5.4-0.5,8.1,0.3c2.7,0.8,5.2,2,7.5,3.7c0-0.2,0-0.5,0.1-0.9c0-0.4,0.1-0.9,0.2-1.4c0.3-2,1.3-3.6,3-4.7
			c1.8-1.1,3.8-1.9,6.2-2.4c1.4-0.3,2.6-0.4,3.8-0.3c1.1,0.1,2.1,0.4,2.8,1c-0.3,2.1-0.6,4.6-0.9,7.5c-0.4,3.7-0.7,7.6-1,11.8
			c-0.3,4.3-0.4,8.5-0.3,12.4C209.7,216.8,210,219.7,210.5,222z M195.5,194.2c-2.5-2.4-4.7-3.4-6.4-3.1c-1.4,0.3-2.5,1.8-3.1,4.5
			c-0.9,3.3-1.4,7.2-1.5,11.8c-0.1,3.2-0.2,6.3,0,9.2c0.3,5.6,0.6,9,0.8,10.3c0.2,0.7,0.4,1.4,0.7,2.1c0.3,0.6,0.8,0.9,1.4,0.8
			c0.8-0.2,1.5-1.2,2.3-3c0.7-1.9,1.4-4.2,2-7c0.9-4.1,1.6-8.3,2.2-12.7C194.7,201,195.3,196.7,195.5,194.2z"/>
		<path class="st8" d="M241.3,180.1c0.4,1.7,0.3,3.3-0.1,4.8c-0.4,1.5-1.1,2.4-2.1,2.6c0.3-1.3,0.3-2.6,0.1-4
			c-0.2-1-0.6-1.9-1.3-2.6c-0.7-0.7-1.6-1-2.7-0.8c-0.9,0.2-1.6,0.7-2.2,1.7c-0.5,0.9-0.6,2.2-0.3,3.9c0.6,2.6,1.4,5,2.5,7.3
			c1.1,2.2,2.2,4.4,3.4,6.5c6.2-5.9,12.1-9.5,17.5-10.7c-5.2,2.6-10.7,6.9-16.3,12.9c0.9,1.7,1.8,3.4,2.6,5.1c1,2.1,1.7,4.3,2.2,6.7
			c1.2,5.8,0.6,10.8-1.9,15c-2.5,4.2-6,6.8-10.5,7.7c-2.5,0.5-4.5,0.1-6.2-1c-1.7-1-2.8-2.8-3.5-5.4c-1.2-5.6,0.5-11.9,5.1-18.7
			c-0.4-0.7-0.8-1.4-1.2-2.1c-1.3-2.3-2.5-4.6-3.7-7c-1.2-2.4-2-5-2.6-7.7c-0.8-3.8-0.8-7.1,0.1-9.9c0.9-2.7,2.3-4.9,4.3-6.5
			c1.9-1.6,4-2.6,6.1-3.1c2.4-0.5,4.7-0.3,6.8,0.5C239.5,176.2,240.8,177.8,241.3,180.1z M229.6,230.9c1.3-0.3,2.1-1.4,2.5-3.5
			c0.4-2.1,0.4-4,0-5.7c-0.6-2.6-1.5-5.2-2.8-7.7c-2.5,5.3-3.3,9.6-2.6,13C227.3,229.9,228.3,231.2,229.6,230.9z"/>
		<path class="st8" d="M302.1,167.2c0.4,1.7,0.3,3.3-0.1,4.8c-0.4,1.5-1.1,2.4-2.1,2.6c0.3-1.3,0.4-2.6,0.1-4
			c-0.2-1-0.6-1.9-1.3-2.6c-0.7-0.7-1.6-1-2.7-0.8c-0.9,0.2-1.6,0.7-2.2,1.7c-0.5,0.9-0.6,2.2-0.3,3.9c0.6,2.6,1.4,5,2.5,7.3
			c1.1,2.2,2.2,4.4,3.4,6.5c6.2-5.9,12.1-9.5,17.5-10.7c-5.2,2.6-10.7,6.9-16.3,12.9c0.9,1.7,1.8,3.4,2.6,5.1c1,2.1,1.7,4.3,2.2,6.7
			c1.2,5.8,0.6,10.8-1.9,15c-2.5,4.2-6,6.8-10.5,7.7c-2.5,0.5-4.5,0.1-6.2-1c-1.7-1-2.8-2.8-3.5-5.4c-1.2-5.6,0.5-11.9,5.1-18.7
			c-0.4-0.7-0.8-1.4-1.2-2.1c-1.3-2.3-2.5-4.6-3.7-7c-1.2-2.4-2-5-2.6-7.7c-0.8-3.8-0.8-7.1,0.1-9.9c0.9-2.7,2.3-4.9,4.3-6.5
			c1.9-1.6,4-2.6,6.1-3.1c2.4-0.5,4.7-0.3,6.8,0.5C300.3,163.3,301.6,164.9,302.1,167.2z M290.4,218c1.3-0.3,2.1-1.4,2.5-3.5
			c0.4-2.1,0.4-4,0-5.7c-0.6-2.6-1.5-5.2-2.8-7.7c-2.5,5.3-3.3,9.6-2.6,13C288.1,217,289.1,218.3,290.4,218z"/>
		<path class="st8" d="M328.8,211c-3.5,0.7-6.5,0.5-9.1-0.8c-2.6-1.3-4.6-3.1-6.2-5.5c-1.6-2.4-2.7-5-3.3-7.7
			c-0.8-3.8-1.1-7.8-0.9-12c0.2-4.2,0.7-8.2,1.4-12.1c0.7-1.8,2.3-3.3,4.7-4.4c0.1-4,1.1-7.3,3.2-9.7c2.1-2.4,5-4,8.6-4.8
			c4.1-0.9,7.7,0.1,10.6,3c3,2.9,5.1,7.5,6.4,13.8c0.5,2.4,0.9,5,1.1,7.7c2.4-0.9,4.3-2.3,5.8-4c1.5-1.7,2.5-3.9,2.9-6.5
			c0.6,2.8,0.1,5.3-1.6,7.3c-1.6,2.1-4,3.8-7,5.1c0.1,4.6-0.4,9-1.5,13.3c-1.1,4.4-3,8.2-5.5,11.4C336,208.1,332.8,210.1,328.8,211z
			 M321.9,166.7c1.7-0.1,3.2,0.1,4.5,0.7c-1,2.6-1.6,5.3-2,8.1c3.4,3.3,7.9,4.8,13.5,4.5c-0.2-2.9-0.6-5.6-1.1-8.1
			c-0.6-2.9-1.7-5.5-3.2-7.6c-1.5-2.1-3.6-2.9-6.2-2.4c-1.2,0.3-2.2,0.7-3.1,1.4C323.3,163.9,322.6,165.1,321.9,166.7z M324,180.2
			c-0.1,3.8,0.1,7.4,0.9,10.8c0.2,1,0.6,2.3,1.1,3.9c0.5,1.6,1.3,3,2.2,4.1s2.2,1.6,3.6,1.3c1.5-0.3,2.8-1.4,3.7-3.3
			c0.9-1.8,1.6-4.1,2.1-6.8c0.4-2.6,0.5-5.4,0.4-8.3C333,182.5,328.3,181.9,324,180.2z"/>
		<path class="st8" d="M355.1,117c2.9-2,5.8-3.3,8.9-4c1.4-0.3,2.6-0.4,3.8-0.3c1.1,0.1,2.1,0.4,2.8,1c-0.5,3.9-1.2,11-2,21.2
			c-0.8,10.2-1.5,20.7-1.9,31.4c-0.4,10.7-0.2,18.1,0.7,22.3c0.4,1.9,1.1,2.7,2.1,2.5c1-0.2,2.1-1.5,3.3-3.9
			c1.1-2.4,2.2-5.2,3.2-8.5c1-3.2,1.8-6.4,2.6-9.4c0.7-3,1.2-5.3,1.4-7c0.2,0.8,0.1,2.6-0.2,5.5c-0.3,2.9-0.8,6.2-1.5,10
			c-0.8,3.8-1.8,7.5-3,11.2c-1.3,3.7-2.8,6.9-4.6,9.6c-1.8,2.7-3.8,4.3-6.1,4.8c-3.4,0.7-6.2,0-8.3-2.1c-1.8-1.8-2.9-4.1-3.5-6.8
			c-1-4.8-1.4-12.5-1.1-23.3c0.3-10.8,0.8-21.4,1.6-31.7C353.9,129.1,354.6,121.6,355.1,117z"/>
		<path class="st8" d="M381.8,111.3c2.9-2,5.8-3.3,8.9-4c1.4-0.3,2.6-0.4,3.8-0.3c1.1,0.1,2.1,0.4,2.8,1c-0.5,3.9-1.2,11-2,21.2
			c-0.8,10.2-1.5,20.7-1.9,31.4c-0.4,10.7-0.2,18.1,0.7,22.3c0.4,1.9,1.1,2.7,2.1,2.5c1-0.2,2.1-1.5,3.3-3.9
			c1.1-2.4,2.2-5.2,3.2-8.5c1-3.2,1.8-6.4,2.6-9.4c0.7-3,1.2-5.3,1.4-7c0.2,0.8,0.1,2.6-0.2,5.5c-0.3,2.9-0.8,6.2-1.5,10
			c-0.8,3.8-1.8,7.5-3,11.2c-1.3,3.7-2.8,6.9-4.6,9.6c-1.8,2.7-3.8,4.3-6.1,4.8c-3.4,0.7-6.2,0-8.3-2.1c-1.8-1.8-2.9-4.1-3.5-6.8
			c-1-4.8-1.4-12.5-1.1-23.3c0.3-10.8,0.8-21.4,1.6-31.7C380.6,123.4,381.3,116,381.8,111.3z"/>
		<path class="st8" d="M452.3,170.6c0.1,0.7,0.4,1.3,0.7,1.9c0.3,0.6,0.8,0.8,1.4,0.7c1.4-0.3,2.9-2.2,4.4-5.8
			c1.5-3.6,2.8-7.5,3.9-11.8c1.1-4.3,1.8-8,2.1-11.1c0.2,0.9,0.2,2.7,0,5.6c-0.2,2.9-0.6,6.1-1.2,9.9c-0.6,3.7-1.6,7.4-2.8,11.1
			c-1.2,3.7-2.8,6.9-4.6,9.5c-1.9,2.7-4.1,4.3-6.7,4.9c-2.6,0.6-4.7,0.4-6.3-0.6c-1.6-0.9-2.9-2.2-3.7-3.8c-0.9-1.6-1.4-3.1-1.7-4.6
			c-0.8-3.6-1.2-8.1-1.2-13.4c0-5.4,0.2-10.7,0.5-15.9c0.4-5.3,0.7-9.7,1.2-13.4c2.9-2,5.9-3.3,8.9-4c1.4-0.3,2.6-0.4,3.8-0.3
			c1.2,0.1,2.1,0.4,2.8,1c-0.5,3.3-0.9,7.5-1.4,12.6s-0.7,10.1-0.8,15.2C451.3,163.2,451.6,167.4,452.3,170.6z M448.5,120.8
			c-2.4,0.1-4.5-0.6-6.2-2.3c-1.4-1.3-2.3-2.9-2.7-4.9c-0.1-0.4-0.2-0.9-0.2-1.3c-0.1-2.6,0.6-4.8,2-6.6c1.3-1.6,2.9-2.6,4.8-3
			c0.3-0.1,0.7-0.1,1-0.1c2.4-0.1,4.5,0.7,6.2,2.3c1.4,1.3,2.3,3,2.7,4.9c0.1,0.4,0.2,0.9,0.2,1.3c0.1,2.6-0.6,4.8-2,6.7
			c-1.2,1.5-2.8,2.5-4.6,2.9C449.3,120.7,448.9,120.7,448.5,120.8z"/>
		<path class="st8" d="M493.1,132.4c0.4,2.1,0.4,4.5-0.1,7.3c-0.6,0.8-1.8,1.4-3.8,2c-2.2,0.5-4.1,0.5-5.7,0.2
			c0.3-2.3,0.5-4.5,0.5-6.7c0-1.8-0.1-3.4-0.4-4.7l-0.1-0.7c-0.3-1.4-0.9-2.1-1.6-2c-1.8,0.6-3.1,2.6-3.9,6.2
			c-1,4.2-1.5,8.8-1.6,13.9c0,6.2,0.2,10.3,0.6,12.3c0.6,2.7,1.4,4.7,2.4,5.9c1.4,1.7,2.9,2.4,4.6,2c1.7-0.4,3.3-1.1,4.8-2.3
			c1.5-1.2,2.8-2.6,4.1-4.3c2.7-3.8,4.7-8,6.2-12.7c1.5-4.7,2.3-8.8,2.4-12.3c0.5,2.3,0.4,5.1-0.1,8.6c-0.6,3.5-1.6,7.5-3,12
			c-1.6,5-3.8,9.6-6.7,13.7c-2.9,4.1-6.7,6.7-11.4,7.9c-4.1,0.9-7.9,0.1-11.5-2.3c-1.5-1.1-2.9-2.7-4.2-4.8c-1.1-1.9-1.9-4.2-2.5-7
			c-0.7-3.1-0.9-7.6-0.8-13.5c0.2-5.2,0.9-10.2,2.2-15c1-3.7,2.8-6.7,5.4-9.1c2-1.8,4.5-3,7.5-3.7c3.6-0.8,7-0.5,10.3,0.9
			C490.1,125.9,492.3,128.5,493.1,132.4z"/>
		<path class="st8" d="M528.5,125.3c-1.4,1.6-2.7,4.5-3.9,8.6c-1.2,4.2-2.3,9-3.2,14.2c-1.3,8.1-2.1,14.9-2.4,20.5
			c-1.2,1-2.4,1.8-3.8,2.3c-1.3,0.6-2.5,1-3.5,1.2c-1.8,0.4-3.4,0.4-4.7,0.1c-1.3-0.3-2.4-0.9-3.3-1.7c-1.1-1-2-2.1-2.6-3.5
			c-0.6-1.3-1-2.6-1.3-3.8c-0.8-3.8-1.3-8.6-1.6-14.3c-0.5-10.2-0.4-21.2,0.1-32.9c0.3-6.2,0.7-12,1.1-17.4c0.4-4.8,0.8-9,1.2-12.6
			c2.9-2,5.9-3.3,8.9-4c1.4-0.3,2.6-0.4,3.8-0.3c1.2,0.1,2.1,0.4,2.8,1c-0.7,5.4-1.3,10.8-1.9,16.2c-0.6,6.3-1.2,12.6-1.6,19
			c-0.3,4.8-0.5,9.6-0.6,14.4c-0.1,3.1-0.1,6.1-0.1,8.9c0,7.4,0.4,12.7,1,15.8c0.2,0.7,0.4,1.5,0.9,2.2c0.4,0.7,0.7,1,1,1
			c0.3-4.8,0.9-9.4,1.6-14c0.7-4.7,1.7-9.1,2.9-13.3c1.1-4,2.5-7.6,3.9-10.8c1.4-3.2,3.1-5.9,5.3-8.2c1.6-1.6,3.5-2.7,5.8-3.2
			c1.7-0.4,3.3-0.2,5,0.4c0.8,0.4,1.4,0.9,2,1.7c0.6,0.8,1,1.7,1.2,2.9c0.3,1.2,0.2,4-0.2,8.3c-0.1,0.5-0.1,1-0.1,1.5
			c-0.4,4.8-0.7,10-0.6,15.6c0,3.7,0.4,7,1,10.1c0.1,0.7,0.4,1.3,0.7,1.9c0.3,0.6,0.8,0.8,1.4,0.7c1.1-0.2,2.3-1.4,3.5-3.6
			c1.2-2.2,2.3-4.9,3.4-8c2-6,3.2-11.7,3.6-17.1c0.3,1.5,0.2,4.7-0.3,9.5c-0.5,4.8-1.5,9.9-3,15.1c-0.8,2.7-1.8,5.2-2.9,7.5
			c-1.2,2.3-2.5,4.3-4,5.9c-1.5,1.6-3.3,2.6-5.2,3c-1.5,0.3-2.9,0.4-4.1,0.1c-1.2-0.2-2.2-0.7-3.1-1.3c-1.3-1-2.4-2.2-3.1-3.6
			c-0.7-1.4-1.2-2.8-1.5-4.2c-0.9-4-1.3-8.4-1.3-13.3C526.9,137.3,527.5,131.1,528.5,125.3z"/>
		<path class="st8" d="M614,107.2c-1.4,1.6-2.7,4.5-3.9,8.6c-1.2,4.2-2.3,9-3.2,14.2c-1.3,8.1-2.1,15-2.4,20.5
			c-1.2,1-2.4,1.8-3.8,2.3c-1.3,0.6-2.5,1-3.5,1.2c-1.8,0.4-3.4,0.4-4.7,0.1c-1.3-0.3-2.4-0.9-3.3-1.7c-1.1-1-2-2.1-2.6-3.5
			c-0.6-1.3-1-2.6-1.3-3.8c-0.8-3.8-1.3-8.6-1.6-14.3c-0.5-10.2-0.4-21.2,0.1-32.9c0.3-6.2,0.7-12,1.1-17.4c0.4-4.8,0.8-9,1.2-12.6
			c2.9-2,5.9-3.3,8.9-4c1.4-0.3,2.6-0.4,3.8-0.3c1.2,0.1,2.1,0.4,2.8,1c-0.7,5.4-1.3,10.8-1.9,16.2c-0.6,6.3-1.2,12.6-1.6,19
			c-0.3,4.8-0.5,9.6-0.6,14.4c-0.1,3.1-0.1,6.1-0.1,8.9c0,7.4,0.4,12.7,1,15.8c0.2,0.7,0.4,1.5,0.9,2.2c0.4,0.7,0.7,1,1,1
			c0.3-4.8,0.9-9.4,1.6-14c0.7-4.7,1.7-9.1,2.9-13.3c1.1-4,2.5-7.6,3.9-10.8c1.4-3.2,3.1-5.9,5.3-8.2c1.6-1.6,3.5-2.7,5.8-3.2
			c1.7-0.4,3.4-0.2,5,0.4c0.8,0.4,1.4,0.9,2,1.7c0.6,0.8,1,1.7,1.2,2.9c0.3,1.2,0.2,4-0.2,8.3c-0.1,0.5-0.1,1-0.1,1.5
			c-0.4,4.8-0.7,10-0.6,15.6c0,3.7,0.4,7,1,10.1c0.1,0.7,0.4,1.3,0.7,1.9c0.3,0.6,0.8,0.8,1.4,0.7c1.1-0.2,2.3-1.4,3.5-3.6
			c1.2-2.2,2.3-4.9,3.4-8c2-6,3.2-11.7,3.6-17.1c0.3,1.5,0.2,4.7-0.3,9.5c-0.5,4.8-1.5,9.9-3,15.1c-0.8,2.7-1.8,5.2-2.9,7.5
			c-1.2,2.3-2.5,4.3-4,5.9c-1.5,1.6-3.3,2.6-5.2,3c-1.5,0.3-2.9,0.4-4.1,0.1c-1.2-0.2-2.2-0.7-3.1-1.3c-1.3-1-2.4-2.2-3.1-3.6
			c-0.7-1.4-1.2-2.8-1.5-4.2c-0.9-4-1.3-8.4-1.3-13.3C612.4,119.2,612.9,113,614,107.2z"/>
		<path class="st8" d="M669.1,95c0.6,2.6,0.4,5.4-0.4,8.4c-0.7,2.5-1.9,4.8-3.5,6.8c-2,2.5-4.5,4.1-7.4,4.7c-1.9,0.4-3.7,0-5.4-1.2
			c0.1,4.5,0.3,7.6,0.6,9.3c0.5,2.5,1.2,4.4,2.1,5.7c1.4,1.9,3.1,2.7,4.8,2.3c2.6-0.6,5-1.9,6.9-4.1c1.9-2,3.6-4.4,4.9-7.3
			c1.2-2.5,2.2-5.1,3.1-7.9c1.3-4.4,2.2-8.6,2.6-12.4c0.5,2.4,0.2,6.9-0.9,13.2c-0.6,3.1-1.5,6.3-2.7,9.5c-1.6,4.5-3.8,8.5-6.5,12
			c-2.9,3.8-6.5,6.3-10.8,7.4l-0.3,0.1c-4.1,0.9-7.9,0.1-11.5-2.3c-1.5-1.1-2.9-2.6-4-4.6c-1.2-1.9-2.1-4.4-2.7-7.2
			c-0.7-3.3-1-8.1-0.8-14.5c0.2-4.8,1-9.5,2.2-14c0.7-2.5,1.8-4.7,3.3-6.7c2.2-3.1,5.4-5.2,9.7-6.1c3.1-0.7,6.2-0.5,9.2,0.4
			c1.8,0.7,3.4,1.7,4.8,3.1C667.7,90.9,668.6,92.8,669.1,95z M659.6,93.1l-0.1-0.2c-0.4-1.7-0.9-2.5-1.7-2.3
			c-0.8,0.2-1.5,0.7-2.1,1.7c-0.6,0.9-1.1,2.1-1.5,3.6c-0.7,2.3-1.2,5.1-1.4,8.2c-0.2,2.4-0.4,4.8-0.4,7.2c1,0.5,1.8,0.6,2.6,0.5
			c1.4-0.3,2.6-1.5,3.5-3.6c0.9-2,1.4-4.2,1.6-6.6C660.1,97.8,660,95,659.6,93.1z"/>
		<path class="st8" d="M716,114.5c0.1,0.7,0.4,1.3,0.7,1.9c0.3,0.6,0.8,0.8,1.5,0.7c1-0.2,2.1-1.5,3.2-3.9c1.1-2.4,2.2-5.2,3.2-8.5
			c1-3.2,1.8-6.4,2.6-9.4c0.7-3,1.2-5.3,1.4-7c0.2,0.8,0.1,2.6-0.2,5.5c-0.3,2.9-0.8,6.2-1.5,10c-0.8,3.8-1.8,7.5-3,11.2
			c-1.2,3.7-2.8,6.9-4.5,9.6s-3.8,4.3-6.1,4.8c-2.6,0.5-4.7,0.4-6.3-0.6c-1.6-0.9-2.9-2.2-3.8-3.8c-0.9-1.6-1.5-3.1-1.8-4.6
			c-0.5-2.5-0.8-5.4-1-8.8c-0.8,3.6-1.8,7.1-3,10.5c-1.2,3.3-2.6,6.2-4.2,8.5s-3.4,3.7-5.5,4.2c-2.9,0.6-5.3,0.2-7.4-1.3
			c-2.1-1.5-3.5-4-4.3-7.6c-0.6-3-1-7.4-1.1-13.2c-0.1-5.8-0.1-11.4,0.2-17c0.2-5.6,0.6-9.8,1.2-12.7c0.9-2,2.8-3.4,6-4.1l0.6-0.1
			c3.5-0.6,6.5-0.5,9.1,0.5c-0.2,2.1-0.3,4.3-0.5,6.7c-0.5,4.8-0.8,9.9-1.1,15.4c-0.3,5.5-0.2,11,0.2,16.6l0.3,1.6
			c0.5,2.2,1.2,3.3,2,3.1c0.8-0.2,1.7-2.1,2.9-5.7c1.1-3.5,2-7.2,2.7-11.3c0.8-4.4,1.5-8.9,2.1-13.5c0.5-4.5,0.9-8.2,1.2-11.2
			l0.4-3.2c2.9-2,5.8-3.3,8.9-4c1.3-0.3,2.6-0.4,3.7-0.3c1.2,0.1,2.1,0.4,2.8,1c-0.5,3.3-0.9,7.5-1.4,12.6c-0.5,5-0.8,10.1-0.9,15.2
			C715.1,107.1,715.4,111.3,716,114.5z"/>
		<path class="st8" d="M727.5,62.5l0.2-2.6c0.7-10.6,1.3-18.1,1.8-22.4c2.9-2,5.8-3.3,8.9-4c1.4-0.3,2.6-0.4,3.8-0.3
			c1.1,0.1,2.1,0.4,2.8,1c-0.7,5.7-1.5,13.8-2.3,24.2l-0.1,1.6c3.4-0.9,6.6-2,9.6-3.3c-0.2,1.9-1.6,3.7-4.3,5.3
			c-1.7,1-3.5,2-5.6,2.9c-0.5,8.2-0.9,16.3-1.2,24.1c-0.3,10-0.1,16.7,0.6,20.1c0.1,0.7,0.4,1.3,0.7,1.9c0.3,0.6,0.8,0.8,1.4,0.7
			c1.4-0.3,2.8-1.7,4.1-4.1c1.3-2.4,2.5-5.3,3.7-8.6c1.1-3.3,2.1-6.4,2.8-9.4c0.7-3,1.2-5.3,1.5-7c0.2,0.9,0.1,2.8-0.1,5.7
			c-0.3,2.9-0.8,6.2-1.7,10c-0.8,3.7-1.9,7.5-3.3,11.2c-1.4,3.7-3.1,6.9-5,9.6c-2,2.7-4.3,4.3-6.8,4.9c-2.6,0.6-4.7,0.4-6.4-0.6
			c-1.6-0.9-2.9-2.2-3.7-3.8c-0.9-1.6-1.4-3.1-1.7-4.6c-0.9-4.1-1.2-11.7-0.9-22.7c0.2-7.5,0.5-14.9,0.9-22.2
			c-0.9,0.3-1.7,0.6-2.4,0.8c-1.4-0.4-2.3-1.5-2.8-3.3c-0.1-0.5-0.3-1-0.4-1.4c-0.2-1.2-0.3-2.2-0.1-3.2
			C723.5,62.8,725.5,62.7,727.5,62.5z"/>
		<path class="st8" d="M784.6,70.4c0.6,2.6,0.4,5.4-0.4,8.4c-0.7,2.5-1.9,4.8-3.5,6.8c-2,2.5-4.5,4.1-7.4,4.7
			c-1.9,0.4-3.7,0-5.4-1.2c0.1,4.5,0.3,7.6,0.6,9.3c0.5,2.5,1.2,4.4,2.1,5.7c1.4,1.9,3.1,2.7,4.8,2.3c2.6-0.6,5-1.9,6.9-4.1
			c1.9-2,3.6-4.4,4.9-7.3c1.2-2.5,2.2-5.1,3.1-7.9c1.3-4.4,2.2-8.6,2.6-12.4c0.5,2.4,0.2,6.9-0.9,13.2c-0.6,3.1-1.5,6.3-2.7,9.5
			c-1.6,4.5-3.8,8.5-6.5,12c-2.9,3.8-6.5,6.3-10.8,7.4l-0.3,0.1c-4.1,0.9-7.9,0.1-11.5-2.3c-1.5-1.1-2.9-2.6-4-4.6
			c-1.2-1.9-2.1-4.4-2.7-7.2c-0.7-3.3-1-8.1-0.8-14.5c0.2-4.9,1-9.5,2.2-14c0.7-2.5,1.8-4.7,3.3-6.7c2.2-3.1,5.4-5.2,9.7-6.1
			c3.1-0.7,6.2-0.5,9.2,0.4c1.8,0.7,3.4,1.7,4.8,3.1C783.2,66.4,784.1,68.2,784.6,70.4z M775.1,68.6l-0.1-0.2
			c-0.4-1.7-0.9-2.5-1.7-2.3c-0.8,0.2-1.5,0.7-2.1,1.7c-0.6,0.9-1.1,2.1-1.5,3.6c-0.7,2.3-1.2,5.1-1.4,8.2c-0.2,2.4-0.4,4.8-0.4,7.2
			c1,0.5,1.8,0.6,2.6,0.5c1.4-0.3,2.6-1.5,3.5-3.6c0.9-2,1.4-4.2,1.6-6.6C775.6,73.2,775.5,70.5,775.1,68.6z"/>
		<path class="st8" d="M122.7,384.8c-0.5,3.2-1.1,6.6-1.6,10.2c-1.1,7.4-2.4,15.2-3.8,23.4c-1.4,8.2-3.2,16.3-5.3,24.2
			c-2.1,8-4.8,15.3-7.9,22.2c-3.1,6.8-6.9,12.5-11.4,17.2c-4.5,4.6-9.8,7.6-16,8.9c-5.9,1.2-11,1.1-15.3-0.6
			c-4.4-1.6-7.9-4.3-10.7-8.1c-2.8-3.8-4.7-8.3-5.9-13.6c-1.3-6-1.6-12.6-1-19.8c0.6-7.2,2.4-14.4,5.3-21.7
			c2.9-7.3,7.1-14.3,12.6-20.9c5.5-6.6,12.5-12.5,20.9-17.6c8.4-5.1,18.6-8.9,30.3-11.4c0.4-2.2,0.8-4.4,1.3-6.9
			c1.3-7.7,2.9-16,4.9-24.8c2-8.9,4.7-17.5,8-25.7c3.3-8.3,7.6-15.4,12.8-21.5c5.2-6,11.8-9.9,19.7-11.6c4.4-0.9,7.9-0.9,10.7,0
			c2.8,0.9,4.9,2.4,6.4,4.5c1.4,2,2.4,4.4,2.9,7l0.1,0.6c1,7.3,1.1,14.1,0.2,20.5c-1.2,13.4-2.3,28.2-3.4,44.6
			c-1,16.4-1.7,31.8-1.9,46.2c-0.3,14.4,0.3,24.8,1.6,31.1c0.3,1.3,0.8,2.5,1.6,3.7c0.8,1.1,2.2,1.5,4.3,1c2.1-0.4,4.3-3.1,6.7-7.9
			c2.4-4.8,4.7-10.5,6.9-17c2.2-6.5,4.1-12.8,5.6-18.8s2.6-10.7,3.1-14c0.3,1.6,0.2,5.2-0.3,10.9c-0.6,5.7-1.6,12.3-3.2,19.9
			c-1.6,7.5-3.7,15-6.5,22.5c-2.7,7.4-6.1,13.9-10,19.3c-3.9,5.4-8.5,8.7-13.8,9.8c-5.1,1.1-9.3,0.7-12.5-1.1
			c-3.2-1.8-5.7-4.3-7.4-7.5c-1.7-3.2-2.9-6.3-3.5-9.1c-1.4-6.6-2.1-16.4-2.2-29.4c-0.1-11.8,0.1-24.5,0.7-38.2
			C138.3,384.3,130.6,384.1,122.7,384.8z M82.5,398.6c-8.8,6.2-15.2,14.6-19.2,25.2c-4,10.5-5.1,20-3.4,28.3c0.6,3,1.6,5.6,2.8,7.9
			c1.3,2.3,3,3.9,5.3,5c2.2,1,5.1,1.2,8.4,0.5c6.1-1.3,11.1-4.5,15.1-9.5c4-5.1,7.2-11.1,9.6-18.1c2.4-7,4.3-14.3,5.7-21.8
			s2.5-14.5,3.3-20.9c0.5-3.4,1-6.4,1.4-9.1C101,388.1,91.3,392.4,82.5,398.6z M124.2,376.5c6.9-0.6,14.3-0.8,22.1-0.4
			c1.6-28.6,3.2-51.6,5-69.1c-4.7,1-8.7,4.7-11.9,11.1c-3.2,6.4-6.1,14.7-8.5,24.8C128.5,353,126.2,364.2,124.2,376.5z"/>
		<path class="st8" d="M254.9,366.8c-3.4,4.1-6.4,11.4-9,22c-1.1,4.2-2.1,8.5-3.1,12.8c-1.3,6.7-2.5,13.8-3.5,21.1
			c-1.8,12-2.8,22.2-3.2,30.4c-5,3.6-9.7,5.9-14.1,6.9c-6,1.3-11.3,0.3-15.7-2.9c-4-3-6.7-8-8.2-14.8c-1.7-8.1-2.6-20-2.8-35.7
			c-0.1-15.7,1-31,3.6-45.8c1.8-5.5,7.6-9.3,17.6-11.6c5.1-1.1,9.7-0.8,13.6,0.9c-3.1,9.3-5.3,22.5-6.6,39.5s-1.1,30.3,0.5,39.6
			c1.3,5.2,2.7,7.6,4.3,7.2c0.4-4.8,1-11,1.9-18.6c0.9-7.6,2.3-16.4,4.4-26.3c1.8-8,4-15.6,6.7-23c2.9-7.9,6.4-14.7,10.7-20.3
			c4.2-5.6,9.3-9,15.1-10.3c3.5-0.8,6.9-0.5,10.1,0.9c3.2,1.3,5.3,4.3,6.3,8.8c0.7,3.2,0.5,10.5-0.6,21.7
			c-1.9,22.8-1.7,39.3,0.4,49.4c1,3.8,2.4,5.4,4.3,5c2.1-0.4,4.2-3,6.4-7.8c2.2-4.8,4.3-10.4,6.3-16.9c2-6.5,3.7-12.7,5.1-18.7
			c1.4-6,2.4-10.6,2.9-13.9c0.3,1.6,0.2,5.2-0.4,10.9c-0.6,5.7-1.6,12.4-3.1,19.9c-1.5,7.5-3.5,14.9-6,22.3c-2.5,7.3-5.5,13.7-9,19
			s-7.6,8.5-12.2,9.5c-6,1.3-11.1,0.2-15.3-3.2c-4.1-3.3-6.8-8.1-8.1-14.6C251.2,416.4,251.5,395.2,254.9,366.8z"/>
		<path class="st8" d="M311.3,411.3c-0.6-0.7-1-1.7-1.3-3c-0.9-4.1-0.2-8.1,2-11.8c3-5.3,6.8-11.1,11.3-17.5
			c4.6-6.4,9-12.4,13.3-18.1c3.6-4.7,6.5-8.7,8.8-11.9c2.3-3.2,3.4-5.1,3.3-5.7c-4.1,2.9-7.6,5-10.5,6.1c-1.8,0.7-4.1,1.4-6.9,2
			c-1.7,0.4-3.4,0.7-5.3,1c-3.8,0.5-7.5,0.9-11.2,1c-0.2,6.1-0.5,10.7-0.9,13.9c-2,1.5-4.1,2.4-6.4,2.9c-1.9,0.4-3.4,0.2-4.6-0.6
			c0.4-3.7,0.8-9.3,1.2-16.7c-1.6-0.3-3.2-0.5-4.7-0.8c-0.7-3.5-1-7.9-0.8-13.4c0.2-5.5,1-9.7,2.5-12.8c0.4-0.9,1-1.8,1.8-2.5
			c0.8-0.7,1.7-1.1,2.8-1.4c2.4-0.5,4.3-0.1,5.7,1.1c1.4,1.3,2.3,3,2.8,5.3c0.1,0.7,0.3,1.4,0.3,2.3c7.9,1.7,16.2,1.6,24.9-0.3
			c8.5-2,14.2-5.7,17.4-11.3c3-0.6,5.9,0.2,8.9,2.5c2.9,2.3,4.9,5.6,5.8,9.8c0.6,3.1-1.1,8.2-5.3,15.4c-4.2,7.2-8.8,14.5-13.9,21.7
			c-5.1,7.3-9.2,12.8-12.2,16.7l-3.7,5.2c10.1,1.6,18.7,6.1,25.8,13.3c13.1-11.4,25.3-20.3,36.6-26.7c-10.8,9-21.7,19.4-32.7,31.1
			c6.1,7.8,10.2,16.6,12.3,26.2c1.9,9.2,1.9,17.6-0.2,25.5c-2.1,7.8-5.5,14.8-10.1,20.8c-4.7,6.1-10,11.1-16.1,15
			c-6.1,3.9-12.1,6.5-18.2,7.8c-4.8,1-9.3,1.1-13.6,0.4c-4.3-0.8-7.9-2.5-10.9-5.2c-3-2.7-5-6.6-6.1-11.5
			c-1.4-6.4-0.5-13.1,2.7-19.9c3.2-6.8,7.7-13.8,13.7-20.9c5.9-7.1,12.6-14.4,19.9-21.8c-2.4-4.4-6.4-8.3-11.9-11.7
			c-3.5-2.1-7-2.9-10.3-2.3c-1.7,0.4-2.9,0.9-3.7,1.7C312.6,412.4,311.9,412,311.3,411.3z M318.9,483.9c0.7,3.1,2,5.3,4.1,6.4
			c2,1.1,4.4,1.4,7,0.8c3.7-0.8,7.4-3.1,11.2-6.8c3.8-3.8,6.7-8.7,8.7-14.9c2-6.2,2.2-13.2,0.5-21c-1.2-5.6-3.2-11-6-16.3
			c-5.4,6.4-10.1,12.6-14.3,18.7c-4.2,6.1-7.3,11.9-9.5,17.5C318.4,473.8,317.8,479,318.9,483.9z"/>
		<path class="st8" d="M415.3,390.6c0.3,1.3,0.7,2.6,1.3,3.7c0.6,1.2,1.5,1.6,2.9,1.3c2.8-0.6,5.7-4.4,8.7-11.6
			c3-7.1,5.6-15,7.9-23.6c2.2-8.6,3.6-16,4.2-22.2c0.4,1.7,0.4,5.4,0,11.1c-0.4,5.7-1.2,12.2-2.5,19.7c-1.3,7.4-3.1,14.8-5.6,22.1
			c-2.5,7.3-5.5,13.7-9.2,19c-3.7,5.4-8.1,8.6-13.3,9.7c-5.2,1.1-9.4,0.7-12.7-1.1c-3.2-1.9-5.7-4.4-7.4-7.5
			c-1.7-3.2-2.9-6.2-3.5-9.1c-1.5-7.2-2.3-16.1-2.3-26.8c0-10.7,0.3-21.3,1-31.8c0.7-10.5,1.5-19.4,2.3-26.7
			c5.8-4,11.7-6.6,17.7-7.9c2.7-0.6,5.2-0.8,7.6-0.6c2.3,0.2,4.2,0.8,5.5,1.9c-0.9,6.7-1.8,15-2.7,25c-0.9,10-1.4,20.1-1.6,30.3
			C413.3,375.9,413.9,384.2,415.3,390.6z M407.7,291.4c-4.8,0.2-8.9-1.3-12.3-4.5c-2.8-2.6-4.6-5.9-5.5-9.8
			c-0.2-0.8-0.3-1.7-0.4-2.6c-0.2-5.1,1.1-9.5,4.1-13.1c2.5-3.1,5.7-5.1,9.6-5.9c0.7-0.1,1.3-0.2,2-0.3c4.9-0.2,9,1.3,12.3,4.5
			c2.8,2.7,4.6,6,5.5,9.8c0.2,0.8,0.3,1.7,0.4,2.6c0.2,5.2-1.1,9.6-4,13.3c-2.5,3-5.5,4.9-9.3,5.7
			C409.4,291.2,408.6,291.3,407.7,291.4z"/>
		<path class="st8" d="M496.6,314.5c1.1,5.3,0.8,10.9-0.8,16.7c-1.4,5-3.7,9.5-7,13.5c-3.9,5-8.9,8.1-14.8,9.4
			c-3.7,0.8-7.3,0-10.7-2.4c0.1,9,0.5,15.2,1.2,18.5c1.1,4.9,2.5,8.7,4.2,11.3c2.9,3.8,6.1,5.3,9.6,4.5c5.3-1.1,9.9-3.8,13.8-8.1
			c3.8-4,7.1-8.8,9.8-14.5c2.4-5,4.4-10.2,6.1-15.8c2.6-8.8,4.3-17.1,5.2-24.8c1,4.9,0.4,13.7-1.9,26.4c-1.3,6.2-3.1,12.5-5.4,19
			c-3.2,9-7.5,16.9-12.9,23.9c-5.8,7.6-12.9,12.5-21.5,14.6L471,407c-8.1,1.7-15.7,0.2-22.9-4.6c-3.1-2.2-5.7-5.2-8.1-9.1
			c-2.3-3.9-4.1-8.7-5.3-14.4c-1.4-6.6-1.9-16.2-1.6-28.9c0.4-9.7,1.9-19,4.4-28c1.4-5,3.6-9.4,6.5-13.3
			c4.4-6.3,10.8-10.3,19.3-12.1c6.2-1.3,12.3-1,18.4,0.9c3.6,1.3,6.8,3.3,9.5,6.1C493.8,306.4,495.6,310.1,496.6,314.5z
			 M477.7,310.8l-0.1-0.5c-0.7-3.4-1.8-4.9-3.3-4.6c-1.7,0.4-3.1,1.5-4.3,3.3c-1.2,1.9-2.2,4.2-3.1,7.2c-1.3,4.7-2.3,10.1-2.9,16.3
			c-0.4,4.8-0.7,9.6-0.8,14.4c1.9,1,3.6,1.3,5.1,1c2.9-0.6,5.2-3,6.9-7.2c1.7-4,2.8-8.4,3.1-13.2
			C478.7,320.1,478.5,314.6,477.7,310.8z"/>
		<path class="st8" d="M567.1,300.4c-2.8,3.3-5.4,9-7.8,17c-2.4,8.4-4.6,17.9-6.4,28.4c-2.7,16.2-4.3,29.8-4.8,40.8
			c-2.3,2-4.8,3.5-7.5,4.6c-2.7,1.1-5,1.9-6.9,2.3c-3.6,0.8-6.7,0.8-9.3,0.2c-2.6-0.7-4.8-1.8-6.6-3.4c-2.2-1.9-3.9-4.3-5.1-6.9
			c-1.2-2.7-2-5.2-2.5-7.6c-1.6-7.6-2.7-17.1-3.2-28.4c-1-20.4-0.9-42.3,0.3-65.6c0.6-12.3,1.3-23.8,2.2-34.6
			c0.8-9.5,1.6-17.8,2.4-25.1c5.8-4,11.7-6.6,17.7-7.9c2.7-0.6,5.2-0.8,7.6-0.6c2.3,0.2,4.2,0.9,5.5,2.1
			c-1.4,10.7-2.7,21.5-3.8,32.2c-1.3,12.6-2.3,25.2-3.1,37.8c-0.6,9.5-0.9,19.1-1.1,28.7c-0.1,6.2-0.2,12.1-0.1,17.7
			c0,14.7,0.7,25.2,2,31.5c0.3,1.5,0.9,2.9,1.7,4.4c0.8,1.4,1.5,2.1,2,2c0.6-9.5,1.7-18.8,3.3-27.8c1.5-9.3,3.4-18.1,5.8-26.4
			c2.3-7.9,4.9-15.1,7.8-21.6c2.7-6.3,6.2-11.8,10.5-16.3c3.1-3.2,6.9-5.3,11.5-6.3c3.4-0.7,6.7-0.4,9.9,0.9c1.5,0.7,2.9,1.8,4,3.3
			c1.1,1.5,2,3.5,2.5,5.9c0.5,2.4,0.3,7.9-0.5,16.5c-0.1,1-0.2,1.9-0.3,2.9c-0.9,9.6-1.3,20-1.3,31.2c0.1,7.3,0.8,14,2.1,20.1
			c0.3,1.3,0.7,2.6,1.3,3.7c0.6,1.2,1.5,1.6,2.9,1.3c2.2-0.5,4.5-2.9,6.9-7.2c2.4-4.3,4.6-9.7,6.8-16c4-12,6.4-23.3,7.1-34.1
			c0.6,3,0.5,9.3-0.5,18.9c-1,9.6-3,19.7-6,30.2c-1.6,5.3-3.6,10.3-5.9,15c-2.3,4.6-5,8.5-8,11.7c-3,3.1-6.5,5.1-10.4,6
			c-3.1,0.6-5.8,0.7-8.1,0.2c-2.3-0.5-4.4-1.3-6.2-2.5c-2.7-1.9-4.7-4.3-6.1-7.2c-1.4-2.9-2.4-5.6-3-8.3c-1.7-8-2.5-16.8-2.5-26.5
			C563.9,324.3,565,312,567.1,300.4z"/>
		<path class="st8" d="M676.9,276.2c1.1,5.3,0.8,10.9-0.8,16.7c-1.4,5-3.7,9.5-7,13.5c-3.9,5-8.9,8.1-14.8,9.4
			c-3.7,0.8-7.3,0-10.7-2.4c0.1,9,0.5,15.2,1.2,18.5c1.1,4.9,2.5,8.7,4.2,11.3c2.9,3.8,6.1,5.3,9.6,4.5c5.3-1.1,9.9-3.8,13.8-8.1
			c3.8-4,7.1-8.8,9.8-14.5c2.4-5,4.4-10.2,6.1-15.8c2.6-8.8,4.3-17.1,5.2-24.8c1,4.9,0.4,13.7-1.9,26.4c-1.3,6.2-3.1,12.5-5.4,19
			c-3.2,9-7.5,16.9-12.9,23.9c-5.8,7.6-12.9,12.5-21.5,14.6l-0.6,0.1c-8.1,1.7-15.7,0.2-22.9-4.6c-3.1-2.2-5.7-5.2-8.1-9.1
			c-2.3-3.9-4.1-8.7-5.3-14.4c-1.4-6.6-1.9-16.2-1.6-28.9c0.4-9.7,1.9-19,4.4-28c1.4-5,3.6-9.4,6.5-13.3
			c4.4-6.3,10.8-10.3,19.3-12.1c6.2-1.3,12.3-1,18.4,0.9c3.6,1.3,6.8,3.3,9.5,6.1C674.2,268.1,676,271.7,676.9,276.2z M658,272.4
			l-0.1-0.5c-0.7-3.4-1.8-4.9-3.3-4.6c-1.7,0.4-3.1,1.5-4.3,3.3c-1.2,1.9-2.2,4.2-3.1,7.2c-1.3,4.7-2.3,10.1-2.9,16.3
			c-0.4,4.8-0.7,9.6-0.8,14.4c1.9,1,3.6,1.3,5.1,1c2.9-0.6,5.2-3,6.9-7.2c1.7-4,2.8-8.4,3.1-13.2C659.1,281.8,658.8,276.2,658,272.4
			z"/>
		<path class="st8" d="M747.5,262.1c-3.4,4.1-6.4,11.4-9,22c-1.1,4.2-2.1,8.5-3.1,12.8c-1.3,6.7-2.5,13.8-3.5,21.1
			c-1.8,12-2.8,22.2-3.2,30.4c-5,3.6-9.7,5.9-14.1,6.9c-6,1.3-11.3,0.3-15.7-2.9c-4-3-6.7-8-8.2-14.8c-1.7-8.1-2.6-20-2.8-35.7
			c-0.1-15.7,1-31,3.6-45.8c1.8-5.5,7.6-9.3,17.6-11.6c5.1-1.1,9.7-0.8,13.6,0.9c-3.1,9.3-5.3,22.5-6.6,39.5
			c-1.3,17.1-1.1,30.3,0.5,39.6c1.3,5.2,2.7,7.6,4.3,7.2c0.4-4.8,1-11,1.9-18.6c0.9-7.6,2.3-16.4,4.4-26.3c1.8-8,4-15.6,6.7-23
			c2.9-7.9,6.4-14.7,10.7-20.3c4.2-5.6,9.3-9,15.1-10.3c3.5-0.8,6.9-0.5,10.1,0.9c3.2,1.3,5.3,4.3,6.3,8.8
			c0.7,3.2,0.5,10.5-0.6,21.7c-1.9,22.8-1.7,39.3,0.4,49.4c1,3.8,2.4,5.4,4.3,5c2.1-0.4,4.2-3,6.4-7.8c2.2-4.8,4.3-10.4,6.3-16.9
			c2-6.5,3.7-12.7,5.1-18.7c1.4-6,2.4-10.6,2.9-13.9c0.3,1.6,0.2,5.2-0.4,10.9c-0.6,5.7-1.6,12.4-3.1,19.9c-1.5,7.5-3.5,14.9-6,22.3
			c-2.5,7.3-5.5,13.7-9,19c-3.5,5.4-7.6,8.5-12.2,9.5c-6,1.3-11.1,0.2-15.3-3.2c-4.1-3.3-6.8-8.1-8.1-14.6
			C743.8,311.7,744,290.5,747.5,262.1z"/>
		<path class="st8" d="M851.6,178.8c-0.7-3.3-2-6.6-3.8-10c-1.8-3.4-4.1-6-6.9-8c-2.8-2-5.9-2.6-9.3-1.9c-4.1,0.9-7.3,3.1-9.6,6.7
			c-2.3,3.6-3.8,7.8-4.6,12.7c-0.8,4.9-0.9,9.9-0.4,15c0.3,2.5,0.7,4.9,1.1,7.1c0.5,2.3,1.1,4.5,1.8,6.5c-4,0.8-7.9,1.2-11.8,1.1
			c-3.9-0.1-7.3-1-10.1-2.6c-2.8-1.6-4.7-4.2-5.4-8c-1.8-8.7-1.8-16.1,0.2-22.4c2-6.2,5.1-11.4,9.3-15.6c4.2-4.2,8.9-7.4,14-9.8
			c5.1-2.4,10-4.1,14.6-5.1c7-1.5,13.9-1.4,20.7,0.4c6.8,1.7,12.7,5.2,17.7,10.5c5,5.2,8.5,12.4,10.4,21.4
			c1.6,7.5,1.5,14.8-0.2,21.9c-1.7,7.1-4.3,13.9-7.6,20.3c-3.3,6.4-6.8,12.5-10.3,18.2c-3.6,5.7-6.6,10.9-8.9,15.6
			c-2.3,4.7-3.1,8.8-2.4,12.3c1,4.5,0.8,8.2-0.3,10.9c-1.2,2.7-3,4.8-5.4,6.1c-2.1,1.2-4.3,2.1-6.7,2.6l-0.7,0.2
			c-3.9,0.7-6.9,0.5-9-0.5c-2.1-1-3.3-2.6-3.8-4.8c-0.7-3.5-0.6-7.3,0.4-11.4c1-4.1,2.5-8.5,4.6-13.1c2-4.6,4.3-9.4,6.9-14.5
			c3.2-6.3,6.3-12.8,9.2-19.7c2.9-6.8,5-13.8,6.4-20.8C853.2,193,853.1,185.9,851.6,178.8z M840.7,328.3c-4.9,0.2-9-1.3-12.5-4.5
			c-2.7-2.7-4.5-5.9-5.3-9.7c-0.2-0.9-0.3-1.8-0.5-2.7c-0.2-5.2,1.1-9.6,4-13.3c2.5-3,5.5-4.9,9.3-5.7c0.8-0.2,1.6-0.3,2.4-0.4
			c4.8-0.2,8.9,1.3,12.3,4.5c2.8,2.6,4.6,5.9,5.5,9.8c0.2,0.8,0.3,1.7,0.4,2.6c0.2,5.1-1.1,9.5-4.1,13.1c-2.5,3.1-5.7,5.1-9.6,5.9
			C842,328.1,841.4,328.2,840.7,328.3z"/>
	</g>
</g>
</svg>
