<?xml version="1.0" encoding="utf-8"?>
<!-- Generator: Adobe Illustrator 19.1.0, SVG Export Plug-In . SVG Version: 6.00 Build 0)  -->
<svg version="1.1" baseProfile="tiny" id="Ebene_1" xmlns="http://www.w3.org/2000/svg" xmlns:xlink="http://www.w3.org/1999/xlink"
	 x="0px" y="0px" viewBox="0 0 141.7 141.7" xml:space="preserve">
<path fill="#010202" d="M95.2,44.4L95.2,44.4c-0.4-0.4-0.4-1,0-1.4l5.6-5.6c0.4-0.4,1-0.4,1.4,0c0.4,0.4,0.4,1,0,1.4l-5.6,5.6
	C96.2,44.8,95.6,44.8,95.2,44.4"/>
<path fill="#010202" d="M120,71.7h-12.9c-0.5,0-1-0.4-1-1c0-0.5,0.4-1,1-1H120c0.5,0,1,0.4,1,1C121,71.3,120.6,71.7,120,71.7"/>
<path fill="#010202" d="M68.9,122.8L68.9,122.8c-0.5,0-1-0.4-1-1v-12.9c0-0.5,0.4-1,1-1s1,0.4,1,1v12.9
	C69.9,122.4,69.4,122.8,68.9,122.8"/>
<path fill="#010202" d="M16.8,71.5L16.8,71.5c0-0.5,0.4-1,1-1l12.9-0.3c0.6,0,1,0.4,1,1c0,0.5-0.4,1-1,1l-12.9,0.3
	C17.3,72.5,16.8,72,16.8,71.5"/>
<path fill="#010202" d="M68.9,33.5L68.9,33.5c-0.5,0-1-0.4-1-1V19.6c0-0.5,0.4-1,1-1s1,0.4,1,1v12.9C69.9,33,69.4,33.5,68.9,33.5"/>
<path fill="#010202" d="M100.8,104l-5.6-5.6c-0.4-0.4-0.4-1,0-1.4c0.4-0.4,1-0.4,1.4,0l5.6,5.6c0.4,0.4,0.4,1,0,1.4
	C101.8,104.4,101.2,104.4,100.8,104"/>
<path fill="#010202" d="M35.6,104L35.6,104c-0.4-0.4-0.4-1,0-1.4l5.6-5.6c0.4-0.4,1-0.4,1.4,0c0.4,0.4,0.4,1,0,1.4L37,104
	C36.6,104.4,36,104.4,35.6,104"/>
<path fill="#010202" d="M41.2,44.4l-5.6-5.6c-0.4-0.4-0.4-1,0-1.4c0.4-0.4,1-0.4,1.4,0l5.6,5.6c0.4,0.4,0.4,1,0,1.4
	C42.2,44.8,41.5,44.8,41.2,44.4"/>
<path fill="#010202" d="M88.2,51.4C78,41.1,61.7,40.7,50.9,50.1l1.2,1.2c4.8-4.1,10.8-6.2,16.7-6.2c6.6,0,13.1,2.5,18.2,7.5
	c10,10,10,26.3,0,36.3c-10,10-26.3,10-36.3,0c-9.5-9.5-10-24.8-1.3-34.8l-1.2-1.2c-9.3,10.7-8.9,27,1.3,37.2c5.3,5.3,12.3,8,19.3,8
	c7,0,14-2.7,19.3-8C98.9,79.4,98.9,62,88.2,51.4"/>
</svg>
